HIERARCHY
ROOT Hips
{
 OFFSET 0.000000 0.000000 0.000000
 CHANNELS 6 Xposition Yposition Zposition Yrotation Xrotation Zrotation
 JOINT Chest
 {
  OFFSET 0.000000 9.585900 0.002600
  CHANNELS 3 Yrotation Xrotation Zrotation
  JOINT Chest2
  {
   OFFSET 0.000000 9.601200 -0.005300
   CHANNELS 3 Yrotation Xrotation Zrotation
   JOINT Chest3
   {
    OFFSET 0.000000 9.561800 0.000000
    CHANNELS 3 Yrotation Xrotation Zrotation
    JOINT Chest4
    {
     OFFSET 0.000000 9.552100 0.000000
     CHANNELS 3 Yrotation Xrotation Zrotation
     JOINT Neck
     {
      OFFSET 0.000000 14.453000 0.000000
      CHANNELS 3 Yrotation Xrotation Zrotation
      JOINT Head
      {
       OFFSET 0.000000 8.936500 -0.011300
       CHANNELS 3 Yrotation Xrotation Zrotation
       End Site
       {
        OFFSET 0.000000 17.073600 -0.006000
       }
      }
     }
     JOINT RightCollar
     {
      OFFSET -2.921100 9.558500 0.000000
      CHANNELS 3 Yrotation Xrotation Zrotation
      JOINT RightShoulder
      {
       OFFSET -13.519700 0.000000 0.000000
       CHANNELS 3 Yrotation Xrotation Zrotation
       JOINT RightElbow
       {
        OFFSET 0.000000 -29.696600 0.000000
        CHANNELS 3 Yrotation Xrotation Zrotation
        JOINT RightWrist
        {
         OFFSET 0.000000 -24.004700 0.000000
         CHANNELS 3 Yrotation Xrotation Zrotation
         End Site
         {
          OFFSET 0.000000 -17.728500 0.000000
         }
        }
       }
      }
     }
     JOINT LeftCollar
     {
      OFFSET 2.921100 9.558500 0.000000
      CHANNELS 3 Yrotation Xrotation Zrotation
      JOINT LeftShoulder
      {
       OFFSET 13.519700 0.000000 0.000000
       CHANNELS 3 Yrotation Xrotation Zrotation
       JOINT LeftElbow
       {
        OFFSET 0.000000 -29.696600 0.000000
        CHANNELS 3 Yrotation Xrotation Zrotation
        JOINT LeftWrist
        {
         OFFSET 0.000000 -24.004700 0.000000
         CHANNELS 3 Yrotation Xrotation Zrotation
         End Site
         {
          OFFSET 0.000000 -17.728500 0.000000
         }
        }
       }
      }
     }
    }
   }
  }
 }
 JOINT RightHip
 {
  OFFSET -7.771700 -0.012900 -0.001300
  CHANNELS 3 Yrotation Xrotation Zrotation
  JOINT RightKnee
  {
   OFFSET 0.000000 -40.869800 0.001200
   CHANNELS 3 Yrotation Xrotation Zrotation
   JOINT RightAnkle
   {
    OFFSET 0.000000 -39.717900 0.002100
    CHANNELS 3 Yrotation Xrotation Zrotation
    JOINT RightToe
    {
     OFFSET 0.000000 -4.965400 11.033500
     CHANNELS 3 Yrotation Xrotation Zrotation
     End Site
     {
      OFFSET 0.000000 -1.423100 5.872300
     }
    }
   }
  }
 }
 JOINT LeftHip
 {
  OFFSET 7.771700 -0.012900 -0.001300
  CHANNELS 3 Yrotation Xrotation Zrotation
  JOINT LeftKnee
  {
   OFFSET 0.000000 -40.869800 0.001200
   CHANNELS 3 Yrotation Xrotation Zrotation
   JOINT LeftAnkle
   {
    OFFSET 0.000000 -39.717900 0.002100
    CHANNELS 3 Yrotation Xrotation Zrotation
    JOINT LeftToe
    {
     OFFSET 0.000000 -4.965400 11.033500
     CHANNELS 3 Yrotation Xrotation Zrotation
     End Site
     {
      OFFSET 0.000000 -1.423100 5.872300
     }
    }
   }
  }
 }
}
MOTION
Frames: 16
Frame Time: 0.008333
0.000000 85.388000 0.000000 0.000000 -5.767877 0.000000 0.000000 11.653817 0.000000 0.000000 -5.885947 0.000000 0.000000 -0.000000 0.000000 0.000000 -0.000000 0.000000 0.000000 12.528835 0.000000 0.000000 0.711642 0.000000 0.000000 -0.000000 0.000000 0.000000 0.000000 -90.000000 0.000000 -2.309062 0.000000 0.000000 2.309062 0.000000 0.000000 -0.000000 0.000000 0.000000 -0.000000 90.000000 0.000000 -2.309062 0.000000 0.000000 2.309062 0.000000 0.000000 8.520406 0.000000 0.000000 1.905762 0.000000 -0.000000 -4.658285 0.000000 0.000000 -0.000000 0.000000 0.000000 8.520406 0.000000 0.000000 1.905762 0.000000 -0.000000 -4.658285 0.000000 0.000000 -0.000000 0.000000
-42.674626 44.057493 32.061136 177.029489 -22.059830 -0.420485 -1.256983 17.401509 3.460410 -0.151716 1.880862 0.449614 -0.263521 3.116862 0.739348 -0.931828 15.098258 3.511388 0.111395 18.791583 -5.397941 1.342016 -5.727164 -5.808639 8.380595 0.053881 -2.387715 -9.603511 -9.423372 0.031100 -96.998962 -82.514346 106.169051 -8.015781 -1.508884 -49.426516 -18.420720 -1.503223 -6.350125 15.512869 -9.109565 -2.373085 -169.760818 -81.486544 167.339686 18.413196 -5.839578 51.758113 0.812432 -70.290141 8.870631 -151.284626 69.954275 -150.448590 -15.339647 -22.773810 9.380381 0.461733 -0.699747 0.456832 3.875981 -59.234116 -5.911868 174.644906 62.911705 175.530348 -0.647447 -36.198868 1.948698 -0.010691 0.254098 -0.009469
-42.667663 44.052083 32.071562 177.030374 -22.025255 -0.417481 -1.196327 17.387736 3.491205 -0.160905 1.870532 0.444236 -0.259478 3.107943 0.735485 -0.898421 15.076192 3.497204 0.055236 18.642581 -5.512776 1.325948 -5.890962 -5.932602 8.386213 0.044311 -2.422861 -9.727515 -9.282809 0.135574 -96.850480 -82.412200 106.048964 -8.044075 -1.461546 -49.453202 -18.371971 -1.488182 -6.322662 15.609042 -9.164308 -2.427279 -169.546098 -81.366584 167.251703 18.436552 -5.850272 51.753903 0.743051 -70.338486 8.969000 -151.292102 69.953825 -150.484304 -15.355700 -22.789717 9.352782 0.461569 -0.691790 0.439094 3.830278 -59.279185 -5.903569 174.606634 62.922009 175.489687 -0.629958 -36.189886 1.913756 -0.016254 0.265388 -0.009820
-42.662656 44.047183 32.083342 177.048985 -21.989063 -0.404445 -1.182857 17.364888 3.491303 -0.146918 1.872021 0.445579 -0.268520 3.096996 0.730280 -0.867380 15.066745 3.488155 0.012944 18.485716 -5.637166 1.309677 -6.059012 -6.058210 8.353131 0.036460 -2.422617 -9.780281 -9.160205 0.184603 -96.654822 -82.235163 105.893863 -8.088380 -1.415952 -49.484688 -18.310165 -1.483081 -6.304742 15.764987 -9.219567 -2.470546 -170.751015 -81.266982 168.461305 18.509975 -5.861987 51.748331 0.756166 -70.380901 8.946767 -151.293022 69.943600 -150.491915 -15.298309 -22.867025 9.294326 0.478646 -0.639769 0.433697 3.808474 -59.324613 -5.948864 174.508379 62.939367 175.407980 -0.632122 -36.173783 1.869571 -0.006627 0.279257 -0.008850
-42.659085 44.044071 32.094471 177.077252 -21.963840 -0.384131 -1.206625 17.344037 3.466299 -0.110555 1.887422 0.453627 -0.303393 3.078424 0.722111 -0.807206 15.070691 3.481276 -0.029345 18.327566 -5.760104 1.293180 -6.228216 -6.182497 8.332081 0.025521 -2.432516 -9.838496 -9.097644 0.227428 -95.952433 -81.967032 105.247410 -8.155573 -1.373200 -49.527423 -18.253051 -1.481691 -6.289454 15.957803 -9.276209 -2.499607 -173.273886 -81.178270 170.889420 18.644622 -5.875165 51.735340 0.714757 -70.419747 8.994878 -151.213599 69.909514 -150.443987 -15.332154 -22.930295 9.267537 0.482304 -0.594573 0.431232 3.803853 -59.354512 -6.019939 174.424766 62.962019 175.338687 -0.626234 -36.159769 1.831259 -0.000144 0.296908 -0.010439
-42.660569 44.042043 32.107223 177.116369 -21.932745 -0.339255 -1.179009 17.352613 3.452131 -0.141763 1.867191 0.441309 -0.296214 3.068441 0.720336 -0.786969 15.069632 3.471879 -0.069891 18.172613 -5.879355 1.277737 -6.393685 -6.303549 8.323414 0.015592 -2.450905 -9.907185 -9.041680 0.274794 -95.167997 -81.603759 104.545315 -8.256391 -1.331645 -49.577328 -18.199750 -1.483192 -6.274323 16.149071 -9.334357 -2.520571 -176.824094 -81.083921 174.288368 18.830268 -5.900898 51.707585 0.664202 -70.471031 9.050620 -151.082333 69.856517 -150.379339 -15.412986 -22.979633 9.273323 0.563974 -0.562217 0.432326 3.800758 -59.386646 -6.133725 174.333753 62.995272 175.245387 -0.598139 -36.143730 1.781405 -0.008588 0.318153 -0.014780
-42.662589 44.044087 32.114678 177.154849 -21.940783 -0.292964 -1.178879 17.393616 3.418233 -0.149315 1.858405 0.436703 -0.287550 3.061651 0.718739 -0.766874 15.069140 3.463291 -0.106341 18.024752 -5.992608 1.265351 -6.551176 -6.419317 8.305329 0.004753 -2.460048 -9.947781 -8.849120 0.279237 -95.241568 -81.103058 104.726816 -8.399238 -1.290369 -49.633913 -18.207868 -1.494624 -6.249918 16.365711 -9.390129 -2.544459 179.071259 -80.965964 178.234785 19.034163 -5.941989 51.661411 0.725758 -70.473828 8.968759 -151.020741 69.825218 -150.350327 -15.454940 -23.018165 9.290864 0.628532 -0.602077 0.394180 3.806401 -59.372773 -6.234210 174.284498 63.025870 175.185997 -0.593852 -36.135396 1.760694 -0.001086 0.335160 -0.017633
-42.664158 44.044469 32.131047 177.113909 -21.895923 -0.227545 -1.115464 17.375853 3.387380 -0.165989 1.842456 0.432183 -0.214980 3.102698 0.723131 -0.788875 15.040335 3.453172 -0.137334 17.884786 -6.098143 1.256997 -6.699977 -6.528058 8.264072 -0.020769 -2.452977 -9.963103 -8.712048 0.250798 -94.824571 -80.507666 104.446908 -8.589778 -1.250408 -49.706044 -18.128931 -1.498385 -6.233913 16.440894 -9.449277 -2.555954 174.973592 -80.816378 -177.789074 19.221342 -5.980077 51.591159 0.874400 -70.524161 8.866736 -150.948019 69.797868 -150.315743 -15.370261 -23.167886 9.345701 0.536379 -0.476994 0.334010 3.874310 -59.413614 -6.319611 174.243144 63.057675 175.131264 -0.572928 -36.106281 1.734926 -0.013096 0.326406 -0.017722
-42.666003 44.046632 32.147239 177.103406 -21.854633 -0.177384 -1.080011 17.362743 3.358685 -0.181595 1.825674 0.428343 -0.213264 3.103022 0.721834 -0.775612 15.040761 3.448946 -0.133995 17.773363 -6.209497 1.251713 -6.840660 -6.629439 8.257790 -0.029573 -2.457085 -9.982860 -8.611461 0.212434 -94.157765 -79.834428 103.946433 -8.823437 -1.211950 -49.800364 -18.019643 -1.491569 -6.235003 16.393389 -9.483067 -2.553251 171.491576 -80.616457 -174.293488 19.371446 -5.993885 51.488418 0.990775 -70.570687 8.768917 -150.868999 69.782811 -150.267625 -15.335279 -23.255016 9.392419 0.465179 -0.450857 0.277615 3.935349 -59.455101 -6.416909 174.201740 63.089895 175.093410 -0.571697 -36.070143 1.708341 0.000810 0.321467 -0.008301
-42.667555 44.049848 32.164398 177.126115 -21.808419 -0.146569 -1.071261 17.347480 3.337352 -0.182076 1.822986 0.427817 -0.193049 3.115517 0.720029 -0.741846 15.045464 3.441414 -0.171778 17.640370 -6.292328 1.247995 -6.971314 -6.722983 8.275378 -0.037421 -2.491383 -10.083619 -8.548759 0.209924 -93.456503 -79.090573 103.429767 -9.088040 -1.173948 -49.923694 -17.996990 -1.516010 -6.204223 16.480078 -9.556577 -2.568192 168.639644 -80.460956 -171.493055 19.476073 -5.971785 51.354152 1.058920 -70.623359 8.693747 -150.799202 69.768172 -150.212591 -15.352809 -23.320980 9.428338 0.478755 -0.529514 0.244345 3.953107 -59.507789 -6.514337 174.140910 63.125305 175.052441 -0.572646 -36.025939 1.665214 0.032298 0.318599 0.004395
-42.668906 44.055452 32.178330 177.161953 -21.782722 -0.124338 -1.071808 17.354649 3.319958 -0.135947 1.859159 0.431784 -0.218408 3.090054 0.715353 -0.709036 15.050990 3.434492 -0.207040 17.519960 -6.366288 1.245543 -7.087023 -6.807889 8.261318 -0.062699 -2.513520 -10.142125 -8.488439 0.181392 -92.740584 -78.295376 102.907995 -9.375598 -1.139299 -50.083690 -17.984452 -1.537828 -6.173008 16.561490 -9.635812 -2.582533 166.744595 -80.330238 -169.594503 19.537391 -5.905294 51.174573 1.167649 -70.659264 8.591489 -150.699797 69.744132 -150.107693 -15.413138 -23.356457 9.459050 0.508231 -0.555333 0.245630 3.808217 -59.542273 -6.503994 174.093162 63.162039 174.958842 -0.526164 -35.992052 1.611245 0.028916 0.326167 -0.013454
-42.669603 44.060074 32.196608 177.152020 -21.727345 -0.091871 -1.024632 17.331057 3.311289 -0.132836 1.860086 0.430778 -0.227790 3.082224 0.712947 -0.669360 15.065189 3.428851 -0.225023 17.427975 -6.437013 1.243076 -7.184076 -6.882155 8.245546 -0.081985 -2.532111 -10.168202 -8.438138 0.135163 -92.032299 -77.476710 102.393846 -9.683861 -1.112570 -50.275314 -17.964457 -1.542939 -6.151006 16.616252 -9.704359 -2.589258 165.836274 -80.225693 -168.606429 19.559297 -5.801248 50.921046 1.295445 -70.722003 8.500439 -150.575094 69.741757 -150.006494 -15.376414 -23.366805 9.494619 0.481455 -0.591001 0.223616 3.776328 -59.602632 -6.524485 174.059547 63.195833 174.903682 -0.507448 -35.957785 1.577903 0.034096 0.328115 -0.017320
-42.669337 44.066394 32.211606 177.143791 -21.689440 -0.064360 -0.974530 17.324518 3.307337 -0.130124 1.861134 0.429736 -0.223221 3.083906 0.711329 -0.647525 15.070450 3.422548 -0.240033 17.351212 -6.496225 1.241038 -7.264927 -6.944464 8.227769 -0.100997 -2.552280 -10.177482 -8.401650 0.084759 -91.374420 -76.651298 101.915535 -10.006705 -1.092687 -50.477439 -17.950592 -1.541541 -6.127588 16.679396 -9.769556 -2.591569 165.747172 -80.165523 -168.409119 19.545183 -5.681990 50.581975 1.409097 -70.761601 8.420442 -150.482074 69.744340 -149.918185 -15.371293 -23.391532 9.504657 0.477991 -0.579556 0.223217 3.731046 -59.642910 -6.520861 174.048653 63.226842 174.859220 -0.484726 -35.928393 1.555174 0.027673 0.324574 -0.019857
-42.666002 44.073674 32.224387 177.162911 -21.660991 -0.062469 -0.958722 17.320698 3.312794 -0.139027 1.852582 0.428437 -0.183548 3.114386 0.711578 -0.643927 15.067188 3.415193 -0.250008 17.285107 -6.544678 1.241826 -7.334617 -6.996081 8.191349 -0.138197 -2.553749 -10.145329 -8.365626 0.006147 -90.807694 -75.820429 101.504611 -10.329192 -1.078843 -50.673335 -17.953295 -1.548041 -6.099501 16.764105 -9.815711 -2.587163 166.314870 -80.135614 -168.855702 19.511058 -5.571846 50.164838 1.449888 -70.788791 8.389061 -150.404791 69.743148 -149.839462 -15.342171 -23.407203 9.469608 0.458949 -0.589238 0.254024 3.658161 -59.678482 -6.512528 174.011656 63.255314 174.817522 -0.471243 -35.891138 1.510914 0.043289 0.310349 -0.001074
-42.661414 44.081734 32.234444 177.190168 -21.642919 -0.067061 -0.941330 17.335951 3.325391 -0.126359 1.863826 0.427927 -0.191115 3.107924 0.709720 -0.628840 15.075220 3.406995 -0.265702 17.225987 -6.568925 1.255953 -7.394346 -7.054017 8.160013 -0.178350 -2.556635 -10.102851 -8.339657 -0.076032 -90.325273 -74.988895 101.157844 -10.638758 -1.081206 -50.850875 -17.941268 -1.539889 -6.079326 16.832030 -9.863615 -2.568519 167.285752 -80.117281 -169.706402 19.466372 -5.506148 49.676758 1.469496 -70.807817 8.374369 -150.325155 69.738622 -149.757540 -15.335545 -23.389531 9.453838 0.482523 -0.684542 0.262277 3.619592 -59.698255 -6.529342 173.959522 63.282911 174.783243 -0.474088 -35.862975 1.484914 0.062780 0.308940 0.002448
-42.659354 44.088825 32.245213 177.211108 -21.610377 -0.050972 -0.911577 17.344169 3.322670 -0.124326 1.866715 0.426609 -0.199147 3.102309 0.706934 -0.616378 15.085335 3.397706 -0.297893 17.169343 -6.555263 1.294059 -7.440625 -7.130891 8.142906 -0.204221 -2.576062 -10.071902 -8.336398 -0.136064 -89.886817 -74.162931 100.842644 -10.932133 -1.114075 -50.991202 -17.923062 -1.521439 -6.066498 16.884614 -9.910608 -2.529902 168.377081 -80.103158 -170.687931 19.401730 -5.510146 49.115136 1.546870 -70.843102 8.304491 -150.221667 69.731366 -149.659305 -15.327582 -23.364295 9.448225 0.477733 -0.736870 0.264250 3.546314 -59.734526 -6.528420 173.914786 63.311514 174.718679 -0.467813 -35.832783 1.456981 0.069312 0.309779 -0.005238
